<svg id="svg" version="1.1" xmlns="http://www.w3.org/2000/svg" xmlns:xlink="http://www.w3.org/1999/xlink" width="400" height="400" viewBox="0, 0, 400,400"><g id="svgg"><path id="path0" d="M193.800 89.229 C 166.519 91.347,146.061 99.715,126.396 116.800 C 105.172 135.239,92.089 161.172,89.011 190.902 C 86.785 212.406,94.228 241.572,106.799 260.600 C 133.689 301.305,180.412 320.276,227.000 309.404 C 282.718 296.401,321.519 237.056,310.561 181.600 C 308.728 172.326,307.600 168.839,302.408 156.400 C 286.802 119.008,247.591 91.501,206.600 89.190 C 199.508 88.790,199.454 88.790,193.800 89.229 M202.796 96.198 C 205.512 97.603,206.080 100.970,204.000 103.339 C 201.181 106.550,202.106 107.423,208.685 107.757 C 219.585 108.311,234.741 112.966,244.945 118.893 C 246.455 119.770,248.337 120.548,249.126 120.621 C 249.927 120.696,250.836 121.093,251.181 121.519 C 251.522 121.939,252.815 122.943,254.055 123.750 C 256.909 125.608,269.341 136.915,271.200 139.345 C 272.956 141.640,273.458 141.806,275.639 140.816 C 283.060 137.450,289.099 146.586,282.799 151.649 C 280.828 153.233,280.820 153.030,283.007 156.634 C 288.519 165.713,292.914 179.464,293.982 190.974 C 294.226 193.600,294.621 195.985,294.862 196.274 C 295.695 197.278,299.385 196.923,301.864 195.600 C 305.153 193.845,307.654 194.434,308.816 197.240 C 311.151 202.875,304.815 206.633,300.615 202.103 C 299.642 201.053,296.294 200.402,295.368 201.082 C 295.130 201.257,294.539 205.090,294.055 209.600 C 292.666 222.520,290.032 233.168,285.582 243.852 C 285.120 244.963,285.163 245.344,285.967 247.212 C 288.138 252.259,284.874 257.200,279.368 257.200 L 276.854 257.200 272.927 261.260 C 265.512 268.926,261.596 272.492,255.900 276.769 C 253.100 278.872,253.086 278.997,255.603 279.601 C 261.541 281.025,260.382 288.884,254.319 288.302 C 251.699 288.050,250.803 287.071,250.794 284.456 C 250.784 281.380,250.759 281.381,243.978 284.749 C 238.165 287.636,225.309 292.400,223.332 292.400 C 222.898 292.400,221.745 292.649,220.771 292.952 C 218.534 293.650,212.859 294.431,208.238 294.677 C 202.307 294.993,200.893 296.796,204.200 299.826 C 208.142 303.437,203.288 309.528,198.458 307.030 C 196.227 305.876,195.659 302.142,197.400 300.073 C 199.708 297.330,198.553 294.800,194.992 294.800 C 184.773 294.800,162.200 288.343,153.168 282.837 C 151.217 281.647,150.925 281.768,150.607 283.900 C 150.071 287.495,148.248 289.161,145.431 288.632 C 140.435 287.695,140.738 279.600,145.769 279.600 C 148.146 279.600,147.499 278.734,142.100 274.685 C 137.470 271.212,132.771 266.755,126.303 259.700 C 124.014 257.202,124.009 257.200,121.766 257.200 C 115.724 257.200,111.901 249.910,115.998 246.202 C 117.082 245.220,117.009 244.172,115.644 241.155 C 111.464 231.914,108.659 219.234,107.690 205.200 L 107.400 201.000 105.000 201.010 C 102.849 201.019,102.399 201.175,100.669 202.510 C 95.794 206.273,90.239 202.139,92.999 196.802 C 94.296 194.295,97.186 193.812,100.200 195.600 C 101.765 196.528,102.678 196.787,104.400 196.787 C 107.585 196.788,107.638 196.714,108.012 191.750 C 108.852 180.611,112.504 167.978,118.028 157.107 L 120.065 153.097 118.479 151.448 C 116.393 149.279,116.000 148.435,116.000 146.115 C 116.000 141.989,121.009 138.758,124.546 140.602 C 126.663 141.707,127.115 141.438,132.340 135.964 C 137.117 130.959,143.466 125.423,147.062 123.127 C 147.987 122.537,148.942 121.682,149.186 121.227 C 149.458 120.718,150.026 120.400,150.665 120.400 C 151.235 120.400,153.343 119.521,155.350 118.448 C 157.358 117.374,160.530 115.906,162.400 115.185 C 164.270 114.465,166.986 113.384,168.436 112.783 C 173.234 110.794,181.668 108.929,189.977 108.021 C 199.693 106.958,199.990 106.780,197.153 103.702 C 193.349 99.576,197.822 93.626,202.796 96.198 M148.408 111.804 C 150.418 112.844,150.939 115.109,149.937 118.454 L 149.473 120.000 147.110 120.000 C 144.336 120.000,143.426 119.598,142.604 118.008 C 140.434 113.811,144.299 109.679,148.408 111.804 M257.291 112.283 C 260.233 114.945,258.418 120.000,254.520 120.000 C 251.041 120.000,249.247 117.293,250.404 113.789 C 251.215 111.330,255.261 110.445,257.291 112.283 M191.000 112.046 C 189.020 112.232,186.590 112.562,185.600 112.780 C 184.610 112.997,182.900 113.297,181.800 113.446 C 176.413 114.176,165.291 118.098,157.700 121.945 C 154.870 123.379,154.703 123.697,156.408 124.403 C 158.815 125.401,159.724 127.036,159.394 129.781 C 158.815 134.609,159.059 137.148,160.350 139.754 C 161.008 141.080,161.452 142.316,161.337 142.502 C 161.032 142.995,156.348 137.778,155.318 135.798 C 154.665 134.542,154.014 133.933,152.813 133.452 C 150.951 132.707,149.604 130.825,149.601 128.967 C 149.599 126.718,149.020 126.847,145.222 129.939 C 136.040 137.415,129.057 144.888,131.849 144.250 C 139.102 142.593,146.098 143.921,152.070 148.089 C 154.888 150.057,154.993 150.026,159.155 145.996 C 160.970 144.238,162.560 142.800,162.688 142.800 C 162.816 142.800,164.302 141.913,165.992 140.829 C 173.956 135.721,187.851 131.200,195.589 131.200 C 199.026 131.200,198.968 131.388,198.671 121.185 C 198.357 110.366,199.126 111.283,191.000 112.046 M203.280 112.080 C 202.935 112.425,202.800 115.110,202.800 121.633 C 202.800 132.034,202.437 131.184,206.886 131.195 C 218.005 131.221,234.793 138.232,245.092 147.149 C 248.943 150.484,248.744 150.442,251.363 148.454 C 256.226 144.763,261.044 143.011,265.617 143.269 C 267.367 143.368,268.399 143.273,268.396 143.013 C 268.381 141.299,252.132 126.800,250.226 126.800 C 250.102 126.800,250.000 127.660,250.000 128.711 C 250.000 134.216,243.416 135.522,240.849 130.526 C 239.649 128.191,240.526 125.983,243.204 124.598 C 245.470 123.426,244.556 122.760,235.212 118.772 C 223.372 113.719,205.406 109.954,203.280 112.080 M125.271 152.789 C 118.995 162.187,113.402 178.325,112.349 190.074 C 111.715 197.148,110.389 196.431,123.869 196.306 L 135.358 196.200 136.463 189.513 C 137.071 185.835,138.025 181.502,138.584 179.883 C 139.901 176.068,139.944 176.305,137.458 173.670 C 131.389 167.237,127.600 159.318,127.600 153.066 C 127.600 150.040,127.143 149.986,125.271 152.789 M276.388 157.300 C 275.188 163.059,273.183 166.940,268.792 172.000 C 264.862 176.528,265.014 175.812,266.666 182.008 C 267.456 184.974,268.394 189.438,268.751 191.929 L 269.400 196.459 279.359 196.417 C 291.057 196.367,290.000 196.725,290.000 192.809 C 290.000 184.230,285.481 169.324,279.780 159.096 C 276.975 154.064,277.054 154.106,276.388 157.300 M123.633 201.100 C 111.092 201.229,111.597 201.085,111.608 204.549 C 111.663 221.842,120.375 248.208,124.360 243.141 C 124.807 242.573,126.394 241.359,127.887 240.443 C 129.379 239.527,131.320 238.269,132.200 237.647 C 133.080 237.025,135.915 235.186,138.500 233.559 C 141.085 231.932,143.200 230.415,143.200 230.188 C 143.200 229.960,142.189 227.440,140.954 224.587 C 138.217 218.268,136.890 213.272,136.337 207.200 C 135.919 202.606,135.491 200.717,134.909 200.893 C 134.739 200.945,129.665 201.038,123.633 201.100 M269.183 201.800 C 269.013 202.240,268.665 204.130,268.410 206.000 C 267.491 212.728,265.448 219.667,262.537 225.950 C 261.582 228.012,260.806 229.902,260.813 230.150 C 260.825 230.594,262.203 231.618,270.950 237.688 C 273.398 239.386,275.815 241.252,276.322 241.835 C 278.678 244.545,280.995 243.971,282.514 240.301 C 285.297 233.578,285.946 231.589,287.832 224.000 C 288.998 219.312,289.955 211.968,290.075 206.800 L 290.200 201.400 279.845 201.200 C 269.766 201.005,269.483 201.021,269.183 201.800 M144.955 235.210 C 143.430 236.709,128.995 246.000,128.211 245.987 C 127.765 245.980,127.051 245.710,126.624 245.387 C 125.332 244.410,125.171 244.722,126.191 246.225 C 127.294 247.850,127.813 250.537,127.425 252.606 C 127.049 254.611,131.694 260.191,139.854 267.538 C 147.031 273.999,149.200 275.365,149.200 273.426 C 149.200 271.391,149.939 270.384,152.188 269.354 C 154.577 268.260,156.941 265.524,162.009 257.987 C 164.950 253.613,165.060 254.081,160.162 250.116 C 155.448 246.299,152.278 242.926,149.251 238.506 C 146.487 234.471,146.049 234.135,144.955 235.210 M253.877 239.549 C 249.851 244.610,246.938 247.405,241.400 251.521 C 239.200 253.155,237.270 254.717,237.111 254.991 C 236.443 256.143,244.898 268.426,246.904 269.218 C 248.726 269.937,250.000 271.182,250.000 272.244 C 250.000 275.543,250.802 275.710,254.240 273.128 C 259.262 269.357,265.078 263.830,271.641 256.591 L 273.462 254.582 273.411 250.191 L 273.360 245.800 269.166 243.000 C 266.859 241.460,263.456 239.075,261.602 237.700 C 257.375 234.564,257.951 234.426,253.877 239.549 M168.400 257.274 C 168.400 257.535,167.716 258.570,166.879 259.574 C 165.005 261.825,160.670 267.864,160.012 269.142 C 159.681 269.784,159.615 270.963,159.805 272.849 C 160.140 276.189,159.593 277.296,157.079 278.364 L 155.412 279.072 157.006 280.067 C 163.210 283.941,179.544 289.179,188.000 290.006 C 190.090 290.211,192.909 290.497,194.264 290.641 C 195.620 290.786,197.206 290.785,197.790 290.638 L 198.851 290.372 198.766 277.773 C 198.719 270.843,198.540 265.087,198.369 264.981 C 198.197 264.875,196.109 264.529,193.728 264.212 C 184.849 263.030,178.339 261.191,172.340 258.170 C 169.484 256.731,168.400 256.485,168.400 257.274 M228.800 258.856 C 222.613 261.703,212.398 264.306,206.860 264.447 C 205.837 264.473,204.494 264.608,203.876 264.747 L 202.752 265.000 202.787 277.397 C 202.814 287.025,202.938 289.910,203.344 290.316 C 203.849 290.820,213.462 290.365,215.200 289.754 C 215.530 289.638,217.780 289.189,220.200 288.755 C 227.192 287.503,240.225 282.688,244.110 279.922 L 245.335 279.049 243.768 278.374 C 241.089 277.220,240.184 275.902,240.297 273.319 C 240.432 270.257,233.539 257.507,231.815 257.630 C 231.587 257.646,230.230 258.198,228.800 258.856 " stroke="none" fill="#d28238" fill-rule="evenodd"></path><path id="path1" d="M191.200 74.627 C 154.963 77.172,123.393 93.520,101.348 121.156 C 86.036 140.352,77.805 160.694,74.384 187.800 C 73.801 192.417,73.833 207.126,74.436 211.800 C 80.393 257.983,104.863 294.102,143.600 313.894 C 155.181 319.811,164.360 322.918,178.200 325.604 C 199.911 329.818,226.363 327.078,248.131 318.359 C 292.487 300.594,323.853 257.118,326.339 209.954 C 326.676 203.559,326.265 188.319,325.644 184.200 C 317.642 131.080,283.693 92.747,231.800 78.234 C 226.388 76.720,218.031 75.416,210.000 74.831 C 200.817 74.161,198.227 74.133,191.200 74.627 M208.600 89.205 C 216.002 89.818,223.733 91.293,230.600 93.403 C 233.020 94.146,235.450 94.880,236.000 95.033 C 238.750 95.799,250.144 100.661,252.600 102.116 C 287.521 122.804,307.396 152.803,312.227 192.121 C 313.802 204.940,309.738 229.685,304.001 242.200 C 303.296 243.740,302.485 245.630,302.200 246.400 C 297.141 260.084,280.728 280.113,264.812 292.027 C 232.495 316.218,183.876 319.145,148.264 299.043 C 113.441 279.387,93.591 248.757,89.003 207.600 C 86.844 188.233,94.265 157.512,104.801 142.200 C 105.407 141.320,106.892 139.070,108.102 137.200 C 116.853 123.676,132.666 109.712,149.600 100.555 C 153.597 98.394,166.860 93.719,172.600 92.449 C 174.800 91.962,177.230 91.404,178.000 91.210 C 184.907 89.470,199.918 88.487,208.600 89.205 M192.800 131.483 C 178.792 133.230,168.053 138.161,157.129 147.863 C 154.766 149.962,154.707 149.966,152.199 148.166 C 144.648 142.751,132.445 141.838,129.608 146.476 C 125.434 153.299,128.606 164.287,137.458 173.670 C 139.855 176.211,139.903 176.399,138.847 179.085 C 137.725 181.942,135.816 191.696,135.851 194.400 C 135.983 204.757,136.362 209.695,137.353 213.982 C 138.632 219.514,142.831 229.666,144.215 230.573 C 144.717 230.902,145.590 232.146,146.153 233.338 C 149.603 240.630,159.558 251.096,165.445 253.619 C 166.485 254.065,168.007 255.036,168.826 255.776 C 180.759 266.557,218.030 267.165,231.800 256.804 C 232.900 255.976,234.520 255.073,235.400 254.796 C 241.835 252.773,254.327 241.078,257.382 234.217 C 257.875 233.107,258.964 231.390,259.801 230.400 C 262.216 227.544,265.018 220.991,266.782 214.072 C 269.743 202.466,269.697 193.226,266.624 181.809 C 265.016 175.837,264.867 176.506,268.810 172.000 C 271.763 168.626,274.165 164.498,275.469 160.556 C 280.611 145.011,265.491 137.399,251.448 148.462 C 249.514 149.986,248.277 150.372,247.800 149.600 C 247.370 148.904,241.099 143.815,238.549 142.093 C 226.263 133.794,208.081 129.577,192.800 131.483 M174.427 184.137 C 182.960 186.146,187.125 196.114,182.634 203.779 C 178.419 210.970,168.696 211.967,162.565 205.835 C 153.513 196.784,162.024 181.217,174.427 184.137 M238.600 184.942 C 251.578 191.003,247.778 209.875,233.600 209.773 C 221.758 209.688,216.546 195.361,225.411 187.260 C 229.074 183.912,234.393 182.977,238.600 184.942 " stroke="none" fill="#455b5c" fill-rule="evenodd"></path><path id="path2" d="M0.000 200.000 L 0.000 400.000 200.000 400.000 L 400.000 400.000 400.000 200.000 L 400.000 0.000 200.000 0.000 L 0.000 0.000 0.000 200.000 M211.200 73.618 C 218.209 74.222,228.203 75.837,232.000 76.979 C 232.990 77.276,235.420 77.996,237.400 78.579 C 282.474 91.840,317.426 130.926,325.769 177.400 C 329.693 199.264,327.634 226.004,320.591 244.628 C 320.014 246.153,319.300 248.120,319.004 249.000 C 318.708 249.880,317.889 251.770,317.185 253.200 C 316.481 254.630,315.499 256.717,315.002 257.838 C 310.540 267.906,296.882 286.048,287.155 294.828 C 265.550 314.328,244.717 323.932,215.200 328.001 C 210.009 328.717,196.055 328.971,191.200 328.438 C 188.890 328.185,185.380 327.807,183.400 327.598 C 150.808 324.166,117.148 303.515,96.368 274.200 C 89.396 264.364,81.065 247.705,78.565 238.600 C 76.511 231.120,75.198 225.727,74.807 223.168 C 73.483 214.492,73.179 212.176,72.764 207.600 C 72.138 200.691,72.995 184.531,74.206 180.400 C 74.303 180.070,74.562 178.520,74.782 176.956 C 80.912 133.320,119.154 90.346,162.600 78.271 C 166.797 77.104,173.306 75.642,176.200 75.215 C 177.740 74.988,180.080 74.612,181.400 74.379 C 189.178 73.008,200.718 72.713,211.200 73.618 M197.960 98.042 C 196.365 99.751,196.470 100.953,198.400 103.046 C 201.915 106.860,200.759 108.232,193.377 109.010 C 190.349 109.329,186.955 109.701,185.835 109.838 C 181.980 110.309,173.013 112.444,170.609 113.463 C 169.284 114.024,167.030 114.889,165.600 115.385 C 161.604 116.771,157.310 118.677,154.839 120.162 C 153.607 120.901,152.150 121.642,151.600 121.808 C 149.537 122.431,140.372 129.945,133.973 136.260 C 126.790 143.350,127.084 143.165,124.800 142.000 C 118.762 138.919,114.115 147.312,119.797 151.035 C 121.801 152.348,121.783 152.871,119.606 156.668 C 118.503 158.592,117.600 160.300,117.600 160.462 C 117.600 160.625,116.611 163.277,115.403 166.357 C 112.006 175.015,109.846 184.248,109.229 192.759 C 108.852 197.963,108.702 198.117,104.200 197.914 C 101.482 197.792,100.759 197.603,99.400 196.655 C 96.634 194.728,93.600 196.265,93.600 199.593 C 93.600 202.664,97.144 203.867,99.686 201.659 C 101.686 199.921,102.538 199.600,105.145 199.600 C 108.466 199.600,108.624 199.838,108.926 205.266 C 109.681 218.856,111.745 227.672,117.828 243.287 C 118.559 245.163,118.558 245.180,117.701 246.093 C 113.583 250.476,116.047 256.000,122.120 256.000 L 124.679 256.000 128.530 260.300 C 133.452 265.796,138.150 270.110,144.266 274.751 C 146.942 276.782,149.225 278.689,149.340 278.988 C 150.989 283.286,183.462 293.600,195.346 293.600 C 199.655 293.600,201.393 297.407,198.600 300.727 C 196.571 303.138,197.774 306.182,200.755 306.182 C 204.132 306.182,205.436 303.010,203.044 300.617 C 201.707 299.280,201.600 298.996,201.600 296.777 C 201.600 293.796,201.630 293.782,208.895 293.197 C 216.823 292.558,218.854 292.218,225.200 290.465 C 236.080 287.459,247.916 282.167,251.145 278.864 C 252.165 277.820,253.900 276.355,255.000 275.608 C 259.501 272.550,264.917 267.761,270.332 262.047 L 276.064 256.000 278.732 255.999 C 284.312 255.995,286.938 252.055,284.530 247.297 L 283.461 245.183 284.535 242.892 C 285.125 241.631,286.244 238.440,287.022 235.800 C 287.799 233.160,288.619 230.529,288.844 229.952 C 289.069 229.376,289.517 227.756,289.838 226.352 C 292.034 216.760,292.625 213.056,293.177 205.423 C 293.456 201.557,293.658 200.547,294.237 200.123 C 295.615 199.116,301.200 199.715,301.200 200.870 C 301.200 202.501,305.809 203.281,307.130 201.874 C 310.296 198.505,305.989 194.165,302.200 196.906 C 300.938 197.819,296.985 198.334,295.022 197.841 C 293.577 197.479,293.356 196.813,292.612 190.600 C 291.193 178.748,286.308 163.978,281.071 155.708 C 279.613 153.404,279.691 152.407,281.418 151.287 C 287.580 147.296,282.812 139.031,276.031 141.949 C 273.343 143.105,272.252 143.047,271.379 141.700 C 269.508 138.812,256.300 126.399,253.000 124.427 C 252.120 123.901,251.040 123.162,250.600 122.785 C 250.160 122.407,249.155 121.984,248.367 121.844 C 247.579 121.704,245.869 120.944,244.567 120.156 C 243.265 119.368,240.954 118.093,239.432 117.322 C 236.804 115.992,235.610 115.530,227.620 112.750 C 222.641 111.017,213.755 109.327,207.923 109.004 C 202.179 108.685,201.637 108.447,201.322 106.097 C 201.115 104.552,201.210 104.323,202.549 103.138 C 204.673 101.257,204.589 98.532,202.371 97.385 C 200.579 96.458,199.256 96.655,197.960 98.042 M199.251 111.060 C 199.666 111.560,199.849 113.922,200.000 120.760 C 200.170 128.440,200.290 129.800,200.800 129.800 C 201.310 129.800,201.430 128.409,201.600 120.485 C 201.828 109.845,201.608 110.416,205.486 110.406 C 215.198 110.382,227.228 113.638,241.101 120.045 C 242.477 120.680,243.750 121.200,243.931 121.200 C 245.841 121.200,246.367 124.326,244.595 125.149 C 241.727 126.480,241.000 128.079,242.204 130.408 C 244.288 134.439,249.679 132.132,248.735 127.614 C 247.702 122.670,254.566 126.843,265.267 137.666 C 268.494 140.930,271.341 143.600,271.594 143.600 C 272.115 143.600,274.749 145.492,275.490 146.400 C 275.760 146.730,276.438 148.476,276.997 150.280 C 277.556 152.085,278.942 155.145,280.077 157.080 C 284.854 165.230,286.422 168.967,288.769 177.800 C 291.738 188.967,292.265 197.157,290.051 197.688 C 289.693 197.774,285.267 197.799,280.215 197.744 C 270.768 197.641,269.626 197.804,270.377 199.145 C 270.705 199.730,271.783 199.785,280.472 199.657 C 291.603 199.493,291.329 199.413,291.708 202.966 C 292.094 206.596,290.125 221.472,288.580 226.600 C 288.248 227.700,287.646 229.860,287.242 231.400 C 286.838 232.940,285.839 235.730,285.022 237.600 C 284.205 239.470,283.346 241.540,283.112 242.200 C 282.354 244.340,281.598 244.902,279.852 244.623 C 275.733 243.964,273.246 247.770,274.829 252.310 C 275.547 254.372,271.787 259.164,263.099 267.258 C 251.779 277.804,248.800 279.084,248.800 273.403 C 248.800 271.894,247.998 270.897,246.310 270.309 C 244.852 269.800,242.350 266.717,238.716 260.948 C 236.418 257.301,235.664 256.391,235.019 256.483 C 233.490 256.703,233.941 258.019,237.221 262.905 C 240.915 268.406,241.600 269.987,241.600 273.006 C 241.600 275.932,242.448 276.903,245.252 277.184 C 252.755 277.938,235.524 287.198,221.800 289.789 C 219.820 290.162,217.390 290.635,216.400 290.838 C 214.017 291.328,207.517 291.984,204.962 291.993 C 201.515 292.005,201.610 292.375,201.498 278.566 C 201.444 271.985,201.253 266.372,201.072 266.093 C 200.184 264.720,200.000 266.826,200.000 278.395 C 200.000 293.227,200.380 292.198,195.027 291.859 C 185.075 291.228,179.958 290.271,171.800 287.514 C 156.629 282.387,149.387 277.804,155.490 277.190 C 158.388 276.898,158.600 276.576,158.600 272.446 C 158.600 268.463,158.739 268.182,164.497 260.487 C 167.269 256.783,167.639 255.600,166.025 255.600 C 165.461 255.600,164.334 256.870,162.211 259.900 C 157.814 266.173,154.797 269.672,153.400 270.118 C 151.175 270.829,150.400 271.902,150.400 274.270 C 150.400 276.220,150.323 276.400,149.489 276.400 C 147.236 276.400,133.450 263.953,128.382 257.343 L 126.026 254.271 126.263 252.001 C 126.567 249.095,125.765 247.302,123.568 245.974 C 120.507 244.123,119.970 243.509,118.220 239.862 C 113.595 230.224,110.400 215.565,110.400 203.986 C 110.400 199.628,110.534 199.588,124.920 199.671 C 133.467 199.720,134.898 199.530,134.222 198.435 C 134.045 198.149,131.387 197.986,126.476 197.960 C 110.193 197.873,110.324 197.914,110.657 193.008 C 111.642 178.452,118.315 159.324,125.474 150.531 C 126.401 149.393,127.793 147.203,128.568 145.663 C 131.302 140.235,145.076 126.741,148.842 125.802 C 150.275 125.445,151.352 126.540,151.051 128.046 C 150.656 130.018,151.515 131.592,153.433 132.414 C 154.600 132.914,155.524 133.715,156.278 134.878 L 157.394 136.600 157.670 134.400 C 157.822 133.190,158.070 131.258,158.223 130.107 C 158.567 127.513,157.884 126.283,155.714 125.584 C 151.116 124.102,152.977 122.265,163.600 117.801 C 165.030 117.200,166.650 116.395,167.200 116.013 C 167.750 115.630,169.010 115.204,170.000 115.067 C 170.990 114.930,173.456 114.283,175.480 113.631 C 179.960 112.186,190.234 110.604,196.051 110.464 C 198.083 110.415,198.830 110.554,199.251 111.060 M144.926 112.803 C 141.943 114.005,143.062 118.800,146.326 118.800 C 149.118 118.800,150.367 114.976,148.146 113.229 C 147.016 112.340,146.308 112.246,144.926 112.803 M251.958 113.451 C 249.611 116.278,254.080 120.784,256.538 118.069 C 257.452 117.059,257.410 114.314,256.469 113.462 C 255.506 112.591,252.678 112.583,251.958 113.451 M166.410 186.472 C 155.642 192.053,159.348 208.450,171.377 208.450 C 178.299 208.450,182.616 204.471,183.104 197.641 C 183.760 188.478,174.496 182.280,166.410 186.472 M229.899 185.771 C 222.209 188.515,219.644 198.926,225.179 204.931 C 231.592 211.888,243.433 208.481,245.125 199.193 C 246.748 190.279,238.252 182.790,229.899 185.771 M138.800 234.916 C 125.575 243.277,125.787 243.106,127.356 244.134 C 128.506 244.888,131.974 242.955,140.800 236.642 C 144.744 233.820,144.871 233.680,144.358 232.722 C 143.821 231.718,143.922 231.678,138.800 234.916 M259.680 232.480 C 258.299 233.861,259.110 234.651,267.978 240.571 C 274.003 244.593,274.396 244.769,275.206 243.792 C 275.863 243.002,275.054 242.076,271.800 239.893 C 270.480 239.007,267.490 236.869,265.156 235.141 C 260.686 231.833,260.445 231.715,259.680 232.480 M143.836 282.031 C 141.188 285.177,145.327 289.510,148.218 286.618 C 149.516 285.320,149.649 281.869,148.426 281.214 C 146.857 280.374,144.943 280.715,143.836 282.031 M252.480 281.280 C 251.592 282.168,251.877 285.869,252.889 286.577 C 256.262 288.940,259.897 284.725,257.095 281.700 C 256.160 280.692,253.326 280.434,252.480 281.280 " stroke="none" fill="#ded6c3" fill-rule="evenodd"></path><path id="path3" d="M188.297 73.634 C 130.551 78.403,83.636 122.072,74.404 179.646 C 71.930 195.073,72.663 218.278,75.951 228.600 C 76.161 229.260,76.913 232.050,77.623 234.800 C 86.191 268.012,113.292 300.497,145.400 316.042 C 193.556 339.356,250.567 330.194,288.742 293.004 C 314.501 267.911,326.835 239.387,327.488 203.400 C 328.883 126.472,265.380 67.269,188.297 73.634 M210.000 74.831 C 218.031 75.416,226.388 76.720,231.800 78.234 C 283.693 92.747,317.642 131.080,325.644 184.200 C 328.020 199.970,326.119 222.314,320.913 239.800 C 304.188 295.974,245.267 333.857,185.800 326.669 C 180.055 325.975,179.161 325.825,172.080 324.368 C 124.841 314.653,83.434 270.354,75.832 221.400 C 74.184 210.788,73.972 208.352,73.950 199.800 C 73.929 191.292,74.184 188.210,75.654 179.200 C 85.118 121.197,131.980 78.786,191.200 74.627 C 198.227 74.133,200.817 74.161,210.000 74.831 M203.100 89.082 C 203.595 89.178,204.405 89.178,204.900 89.082 C 205.395 88.987,204.990 88.909,204.000 88.909 C 203.010 88.909,202.605 88.987,203.100 89.082 M278.000 121.400 C 278.746 122.170,279.447 122.800,279.557 122.800 C 279.667 122.800,279.146 122.170,278.400 121.400 C 277.654 120.630,276.953 120.000,276.843 120.000 C 276.733 120.000,277.254 120.630,278.000 121.400 M200.125 130.365 C 198.983 130.504,197.932 130.735,197.788 130.879 C 197.309 131.358,200.977 131.651,202.600 131.263 C 203.480 131.052,203.885 130.862,203.500 130.840 C 203.115 130.818,202.800 130.620,202.800 130.400 C 202.800 130.180,202.665 130.025,202.500 130.056 C 202.335 130.087,201.266 130.226,200.125 130.365 M162.541 142.797 C 161.700 143.137,160.982 143.918,161.260 144.191 C 161.337 144.266,161.940 143.895,162.600 143.366 C 163.887 142.334,163.879 142.257,162.541 142.797 M268.400 143.222 C 268.400 143.455,269.255 144.017,270.300 144.471 C 274.318 146.217,275.413 147.787,276.362 153.167 C 276.710 155.144,277.623 155.293,277.335 153.326 C 276.507 147.656,275.478 145.956,271.805 144.190 C 268.643 142.668,268.400 142.600,268.400 143.222 M129.070 145.590 C 127.940 146.932,127.066 149.242,127.288 150.297 C 127.381 150.739,127.861 150.066,128.582 148.478 C 129.213 147.092,130.174 145.607,130.718 145.178 C 131.644 144.450,131.655 144.400,130.890 144.400 C 130.439 144.400,129.621 144.935,129.070 145.590 M168.772 184.147 C 158.772 186.843,155.390 198.661,162.565 205.835 C 170.194 213.465,181.979 209.948,184.189 199.383 C 186.098 190.260,177.524 181.787,168.772 184.147 M229.293 184.667 C 222.818 186.959,219.147 195.799,221.976 202.286 C 226.253 212.090,240.583 212.326,245.215 202.669 C 250.238 192.197,240.173 180.817,229.293 184.667 M176.514 186.058 C 188.344 192.093,183.567 210.176,170.546 208.645 C 160.832 207.504,156.602 196.383,163.027 188.877 C 166.202 185.168,172.279 183.898,176.514 186.058 M238.664 186.247 C 244.342 188.933,247.012 196.102,244.457 201.800 C 239.573 212.693,222.877 209.971,222.079 198.151 C 221.446 188.793,230.424 182.349,238.664 186.247 M135.411 195.990 C 134.934 196.752,134.994 200.502,135.497 201.402 C 135.805 201.953,135.927 201.725,136.088 200.298 C 136.355 197.929,135.922 195.173,135.411 195.990 M268.800 199.256 C 268.800 201.809,268.867 202.078,269.329 201.389 C 269.977 200.421,269.937 196.712,269.275 196.492 C 268.937 196.379,268.800 197.177,268.800 199.256 M259.773 230.476 C 258.422 232.015,258.043 232.598,257.408 234.118 C 256.447 236.418,257.636 235.606,259.390 232.763 C 260.932 230.266,261.161 228.895,259.773 230.476 M143.200 230.385 C 143.200 230.968,146.001 234.800,146.428 234.800 C 146.851 234.800,146.282 233.202,145.354 231.786 C 144.598 230.632,143.200 229.723,143.200 230.385 M164.067 253.528 C 164.652 254.422,168.324 256.800,169.120 256.800 C 170.236 256.800,167.681 254.540,165.575 253.665 C 163.875 252.959,163.684 252.941,164.067 253.528 M235.600 254.684 C 234.215 255.163,230.000 257.835,230.000 258.235 C 230.000 258.371,232.619 257.322,234.846 256.294 C 236.081 255.724,237.201 254.975,237.334 254.629 C 237.466 254.283,237.536 254.014,237.487 254.032 C 237.439 254.049,236.590 254.343,235.600 254.684 M198.200 264.400 C 197.320 264.558,196.994 264.712,197.476 264.743 C 197.958 264.774,198.443 264.946,198.553 265.124 C 198.663 265.302,199.798 265.317,201.076 265.157 C 202.354 264.998,203.760 264.830,204.200 264.784 C 205.120 264.687,201.807 264.046,200.600 264.086 C 200.160 264.101,199.080 264.242,198.200 264.400 " stroke="none" fill="#949a90" fill-rule="evenodd"></path><path id="path4" d="M197.907 73.090 C 198.626 73.179,199.706 73.177,200.307 73.086 C 200.908 72.995,200.320 72.922,199.000 72.924 C 197.680 72.926,197.188 73.001,197.907 73.090 M197.355 96.914 C 195.052 99.024,194.983 101.348,197.153 103.702 C 199.990 106.780,199.693 106.958,189.977 108.021 C 181.668 108.929,173.234 110.794,168.436 112.783 C 166.986 113.384,164.270 114.465,162.400 115.185 C 160.530 115.906,157.358 117.374,155.350 118.448 C 153.343 119.521,151.235 120.400,150.665 120.400 C 150.026 120.400,149.458 120.718,149.186 121.227 C 148.942 121.682,147.987 122.537,147.062 123.127 C 143.466 125.423,137.117 130.959,132.340 135.964 C 127.115 141.438,126.663 141.707,124.546 140.602 C 121.009 138.758,116.000 141.989,116.000 146.115 C 116.000 148.435,116.393 149.279,118.479 151.448 L 120.065 153.097 118.028 157.107 C 112.504 167.978,108.852 180.611,108.012 191.750 C 107.638 196.714,107.585 196.788,104.400 196.787 C 102.678 196.787,101.765 196.528,100.200 195.600 C 97.186 193.812,94.296 194.295,92.999 196.802 C 90.239 202.139,95.794 206.273,100.669 202.510 C 102.399 201.175,102.849 201.019,105.000 201.010 L 107.400 201.000 107.690 205.200 C 108.659 219.234,111.464 231.914,115.644 241.155 C 117.009 244.172,117.082 245.220,115.998 246.202 C 111.901 249.910,115.724 257.200,121.766 257.200 C 124.009 257.200,124.014 257.202,126.303 259.700 C 132.771 266.755,137.470 271.212,142.100 274.685 C 147.499 278.734,148.146 279.600,145.769 279.600 C 140.738 279.600,140.435 287.695,145.431 288.632 C 148.248 289.161,150.071 287.495,150.607 283.900 C 150.925 281.768,151.217 281.647,153.168 282.837 C 162.200 288.343,184.773 294.800,194.992 294.800 C 198.553 294.800,199.708 297.330,197.400 300.073 C 195.659 302.142,196.227 305.876,198.458 307.030 C 203.288 309.528,208.142 303.437,204.200 299.826 C 200.893 296.796,202.307 294.993,208.238 294.677 C 212.859 294.431,218.534 293.650,220.771 292.952 C 221.745 292.649,222.898 292.400,223.332 292.400 C 225.309 292.400,238.165 287.636,243.978 284.749 C 250.759 281.381,250.784 281.380,250.794 284.456 C 250.803 287.071,251.699 288.050,254.319 288.302 C 260.382 288.884,261.541 281.025,255.603 279.601 C 253.086 278.997,253.100 278.872,255.900 276.769 C 261.596 272.492,265.512 268.926,272.927 261.260 L 276.854 257.200 279.368 257.200 C 284.874 257.200,288.138 252.259,285.967 247.212 C 285.163 245.344,285.120 244.963,285.582 243.852 C 290.032 233.168,292.666 222.520,294.055 209.600 C 294.539 205.090,295.130 201.257,295.368 201.082 C 296.294 200.402,299.642 201.053,300.615 202.103 C 304.815 206.633,311.151 202.875,308.816 197.240 C 307.654 194.434,305.153 193.845,301.864 195.600 C 299.385 196.923,295.695 197.278,294.862 196.274 C 294.621 195.985,294.226 193.600,293.982 190.974 C 292.914 179.464,288.519 165.713,283.007 156.634 C 280.820 153.030,280.828 153.233,282.799 151.649 C 289.099 146.586,283.060 137.450,275.639 140.816 C 273.458 141.806,272.956 141.640,271.200 139.345 C 269.341 136.915,256.909 125.608,254.055 123.750 C 252.815 122.943,251.522 121.939,251.181 121.519 C 250.836 121.093,249.927 120.696,249.126 120.621 C 248.337 120.548,246.455 119.770,244.945 118.893 C 239.587 115.781,237.722 114.975,228.019 111.579 C 223.315 109.933,213.562 108.005,208.685 107.757 C 202.106 107.423,201.181 106.550,204.000 103.339 C 207.946 98.845,201.767 92.870,197.355 96.914 M202.371 97.385 C 204.589 98.532,204.673 101.257,202.549 103.138 C 201.210 104.323,201.115 104.552,201.322 106.097 C 201.637 108.447,202.179 108.685,207.923 109.004 C 213.755 109.327,222.641 111.017,227.620 112.750 C 235.610 115.530,236.804 115.992,239.432 117.322 C 240.954 118.093,243.265 119.368,244.567 120.156 C 245.869 120.944,247.579 121.704,248.367 121.844 C 249.155 121.984,250.160 122.407,250.600 122.785 C 251.040 123.162,252.120 123.901,253.000 124.427 C 256.300 126.399,269.508 138.812,271.379 141.700 C 272.252 143.047,273.343 143.105,276.031 141.949 C 282.812 139.031,287.580 147.296,281.418 151.287 C 279.691 152.407,279.613 153.404,281.071 155.708 C 286.308 163.978,291.193 178.748,292.612 190.600 C 293.356 196.813,293.577 197.479,295.022 197.841 C 296.985 198.334,300.938 197.819,302.200 196.906 C 305.989 194.165,310.296 198.505,307.130 201.874 C 305.809 203.281,301.200 202.501,301.200 200.870 C 301.200 199.715,295.615 199.116,294.237 200.123 C 293.658 200.547,293.456 201.557,293.177 205.423 C 292.625 213.056,292.034 216.760,289.838 226.352 C 289.517 227.756,289.069 229.376,288.844 229.952 C 288.619 230.529,287.799 233.160,287.022 235.800 C 286.244 238.440,285.125 241.631,284.535 242.892 L 283.461 245.183 284.530 247.297 C 286.938 252.055,284.312 255.995,278.732 255.999 L 276.064 256.000 270.332 262.047 C 264.917 267.761,259.501 272.550,255.000 275.608 C 253.900 276.355,252.165 277.820,251.145 278.864 C 247.916 282.167,236.080 287.459,225.200 290.465 C 218.854 292.218,216.823 292.558,208.895 293.197 C 201.630 293.782,201.600 293.796,201.600 296.777 C 201.600 298.996,201.707 299.280,203.044 300.617 C 205.436 303.010,204.132 306.182,200.755 306.182 C 197.774 306.182,196.571 303.138,198.600 300.727 C 201.393 297.407,199.655 293.600,195.346 293.600 C 183.462 293.600,150.989 283.286,149.340 278.988 C 149.225 278.689,146.942 276.782,144.266 274.751 C 138.150 270.110,133.452 265.796,128.530 260.300 L 124.679 256.000 122.120 256.000 C 116.047 256.000,113.583 250.476,117.701 246.093 C 118.558 245.180,118.559 245.163,117.828 243.287 C 111.745 227.672,109.681 218.856,108.926 205.266 C 108.624 199.838,108.466 199.600,105.145 199.600 C 102.538 199.600,101.686 199.921,99.686 201.659 C 97.144 203.867,93.600 202.664,93.600 199.593 C 93.600 196.265,96.634 194.728,99.400 196.655 C 100.759 197.603,101.482 197.792,104.200 197.914 C 108.702 198.117,108.852 197.963,109.229 192.759 C 109.846 184.248,112.006 175.015,115.403 166.357 C 116.611 163.277,117.600 160.625,117.600 160.462 C 117.600 160.300,118.503 158.592,119.606 156.668 C 121.783 152.871,121.801 152.348,119.797 151.035 C 114.115 147.312,118.762 138.919,124.800 142.000 C 127.084 143.165,126.790 143.350,133.973 136.260 C 140.372 129.945,149.537 122.431,151.600 121.808 C 152.150 121.642,153.607 120.901,154.839 120.162 C 157.310 118.677,161.604 116.771,165.600 115.385 C 167.030 114.889,169.284 114.024,170.609 113.463 C 173.013 112.444,181.980 110.309,185.835 109.838 C 186.955 109.701,190.349 109.329,193.377 109.010 C 200.759 108.232,201.915 106.860,198.400 103.046 C 195.196 99.571,198.231 95.244,202.371 97.385 M113.178 106.700 L 111.800 108.200 113.300 106.822 C 114.696 105.538,114.984 105.200,114.678 105.200 C 114.612 105.200,113.937 105.875,113.178 106.700 M192.000 110.672 C 186.225 111.264,178.561 112.637,175.480 113.631 C 173.456 114.283,170.990 114.930,170.000 115.067 C 169.010 115.204,167.750 115.630,167.200 116.013 C 166.650 116.395,165.030 117.200,163.600 117.801 C 152.977 122.265,151.116 124.102,155.714 125.584 C 157.884 126.283,158.567 127.513,158.223 130.107 C 158.070 131.258,157.822 133.190,157.670 134.400 L 157.394 136.600 156.278 134.878 C 155.524 133.715,154.600 132.914,153.433 132.414 C 151.515 131.592,150.656 130.018,151.051 128.046 C 151.352 126.540,150.275 125.445,148.842 125.802 C 145.583 126.615,131.407 140.074,129.150 144.499 L 128.308 146.149 129.654 145.016 C 130.394 144.393,131.391 143.353,131.870 142.705 C 133.926 139.918,139.633 134.455,145.233 129.911 C 148.999 126.856,149.599 126.726,149.601 128.967 C 149.604 130.825,150.951 132.707,152.813 133.452 C 154.014 133.933,154.665 134.542,155.318 135.798 C 156.348 137.778,161.032 142.995,161.337 142.502 C 161.452 142.316,161.008 141.080,160.350 139.754 C 159.059 137.148,158.815 134.609,159.394 129.781 C 159.724 127.036,158.815 125.401,156.408 124.403 C 154.703 123.697,154.870 123.379,157.700 121.945 C 169.437 115.997,181.042 112.762,194.000 111.826 C 198.705 111.486,198.377 110.820,198.672 121.329 L 198.927 130.400 200.231 130.400 C 202.911 130.400,202.800 130.795,202.800 121.237 C 202.800 111.502,202.772 111.600,205.590 111.600 C 213.316 111.600,225.081 114.449,235.212 118.772 C 244.556 122.760,245.470 123.426,243.204 124.598 C 240.526 125.983,239.649 128.191,240.849 130.526 C 243.416 135.522,250.000 134.216,250.000 128.711 C 250.000 127.660,250.102 126.800,250.226 126.800 C 251.483 126.800,261.326 134.927,265.246 139.203 C 268.045 142.255,274.999 146.850,272.789 144.186 C 272.521 143.864,272.039 143.600,271.718 143.600 C 271.397 143.600,268.494 140.930,265.267 137.666 C 254.566 126.843,247.702 122.670,248.735 127.614 C 249.679 132.132,244.288 134.439,242.204 130.408 C 241.000 128.079,241.727 126.480,244.595 125.149 C 246.367 124.326,245.841 121.200,243.931 121.200 C 243.750 121.200,242.477 120.680,241.101 120.045 C 227.228 113.638,215.198 110.382,205.486 110.406 C 201.608 110.416,201.828 109.845,201.600 120.485 C 201.430 128.409,201.310 129.800,200.800 129.800 C 200.290 129.800,200.170 128.440,200.000 120.760 C 199.750 109.441,200.069 109.844,192.000 110.672 M143.989 111.882 C 139.839 114.742,141.861 120.000,147.110 120.000 L 149.473 120.000 149.937 118.454 C 151.509 113.207,147.881 109.199,143.989 111.882 M252.143 111.760 C 249.791 112.818,249.369 117.005,251.408 119.045 C 252.661 120.297,256.291 120.426,257.350 119.255 C 260.849 115.389,256.856 109.640,252.143 111.760 M148.146 113.229 C 149.491 114.287,149.623 116.777,148.400 118.000 C 146.641 119.759,143.200 118.371,143.200 115.904 C 143.200 112.928,145.904 111.465,148.146 113.229 M256.469 113.462 C 257.410 114.314,257.452 117.059,256.538 118.069 C 254.080 120.784,249.611 116.278,251.958 113.451 C 252.678 112.583,255.506 112.591,256.469 113.462 M125.711 150.151 C 118.273 159.453,111.653 178.302,110.657 193.008 C 110.324 197.914,110.193 197.873,126.476 197.960 C 131.387 197.986,134.045 198.149,134.222 198.435 C 134.898 199.530,133.467 199.720,124.920 199.671 C 110.534 199.588,110.400 199.628,110.400 203.986 C 110.400 215.565,113.595 230.224,118.220 239.862 C 119.970 243.509,120.507 244.123,123.568 245.974 C 125.765 247.302,126.567 249.095,126.263 252.001 L 126.026 254.271 128.382 257.343 C 133.450 263.953,147.236 276.400,149.489 276.400 C 150.323 276.400,150.400 276.220,150.400 274.270 C 150.400 271.902,151.175 270.829,153.400 270.118 C 154.797 269.672,157.814 266.173,162.211 259.900 C 164.023 257.315,165.499 255.595,165.912 255.587 C 166.524 255.576,166.514 255.510,165.824 254.987 C 164.647 254.098,164.597 254.137,161.964 258.054 C 156.942 265.523,154.571 268.263,152.188 269.354 C 149.939 270.384,149.200 271.391,149.200 273.426 C 149.200 275.365,147.031 273.999,139.854 267.538 C 131.694 260.191,127.049 254.611,127.425 252.606 C 127.813 250.537,127.294 247.850,126.191 246.225 C 125.171 244.722,125.332 244.410,126.624 245.387 C 128.032 246.453,128.951 246.047,136.611 240.969 C 146.372 234.498,146.088 234.755,144.970 233.376 C 144.624 232.949,144.432 232.789,144.544 233.019 C 144.915 233.784,141.780 236.229,133.910 241.314 C 128.489 244.817,128.354 244.871,127.185 243.988 C 125.982 243.078,125.633 243.404,132.800 238.736 C 141.317 233.189,143.531 231.914,144.096 232.229 C 144.373 232.383,144.226 232.117,143.770 231.636 L 142.939 230.761 138.170 233.764 C 135.546 235.416,132.680 237.280,131.800 237.908 C 130.920 238.536,129.061 239.747,127.670 240.600 C 126.278 241.453,124.781 242.607,124.343 243.163 C 120.379 248.203,111.663 221.798,111.608 204.580 C 111.596 201.042,111.046 201.200,123.400 201.200 C 135.186 201.200,135.200 201.197,135.200 198.953 C 135.200 196.257,135.855 196.400,123.545 196.400 C 110.443 196.400,111.717 197.120,112.349 190.074 C 113.411 178.229,119.160 161.736,125.407 152.611 C 126.753 150.645,127.993 147.933,127.508 148.019 C 127.448 148.029,126.640 148.989,125.711 150.151 M277.400 153.380 C 277.549 154.805,278.238 156.465,279.858 159.302 C 285.526 169.226,290.222 185.009,289.917 193.108 L 289.800 196.200 279.942 196.307 L 270.083 196.414 269.828 197.431 C 269.688 197.990,269.688 199.064,269.830 199.817 L 270.086 201.186 280.143 201.293 L 290.200 201.400 290.075 206.800 C 289.955 211.968,288.998 219.312,287.832 224.000 C 285.946 231.589,285.297 233.578,282.514 240.301 C 281.024 243.903,278.512 244.575,276.431 241.930 C 276.020 241.407,273.730 239.639,271.342 237.999 C 268.954 236.360,265.740 234.073,264.200 232.917 C 261.064 230.563,260.795 230.476,260.102 231.585 C 259.692 232.242,259.709 232.333,260.205 232.143 C 260.563 232.005,262.504 233.178,265.099 235.099 C 267.465 236.850,270.480 239.007,271.800 239.893 C 275.512 242.383,276.625 244.400,274.288 244.400 C 273.069 244.400,259.675 235.074,259.253 233.931 C 258.973 233.174,258.936 233.184,258.511 234.115 C 258.035 235.162,261.290 237.836,270.179 243.702 L 273.359 245.800 273.410 250.191 L 273.462 254.582 271.641 256.591 C 265.078 263.830,259.262 269.357,254.240 273.128 C 250.802 275.710,250.000 275.543,250.000 272.244 C 250.000 271.182,248.726 269.937,246.904 269.218 C 245.336 268.599,241.078 262.801,236.963 255.681 C 236.925 255.615,236.385 255.689,235.762 255.845 C 234.915 256.058,234.795 256.189,235.286 256.365 C 235.648 256.494,237.297 258.719,238.952 261.308 C 242.735 267.230,244.656 269.581,246.259 270.250 C 248.102 271.021,248.800 271.886,248.800 273.403 C 248.800 279.084,251.779 277.804,263.099 267.258 C 271.787 259.164,275.547 254.372,274.829 252.310 C 273.246 247.770,275.733 243.964,279.852 244.623 C 281.598 244.902,282.354 244.340,283.112 242.200 C 283.346 241.540,284.205 239.470,285.022 237.600 C 285.839 235.730,286.838 232.940,287.242 231.400 C 287.646 229.860,288.248 227.700,288.580 226.600 C 290.125 221.472,292.094 206.596,291.708 202.966 C 291.329 199.413,291.603 199.493,280.472 199.657 C 271.783 199.785,270.705 199.730,270.377 199.145 C 269.626 197.804,270.768 197.641,280.215 197.744 C 285.267 197.799,289.693 197.774,290.051 197.688 C 292.265 197.157,291.738 188.967,288.769 177.800 C 286.428 168.992,284.846 165.216,280.124 157.162 C 279.015 155.271,277.902 153.201,277.650 152.562 C 277.236 151.510,277.212 151.588,277.400 153.380 M170.900 185.076 C 171.285 185.176,171.915 185.176,172.300 185.076 C 172.685 184.975,172.370 184.893,171.600 184.893 C 170.830 184.893,170.515 184.975,170.900 185.076 M72.493 195.600 C 72.493 196.370,72.575 196.685,72.676 196.300 C 72.776 195.915,72.776 195.285,72.676 194.900 C 72.575 194.515,72.493 194.830,72.493 195.600 M222.093 196.000 C 222.093 196.770,222.175 197.085,222.276 196.700 C 222.376 196.315,222.376 195.685,222.276 195.300 C 222.175 194.915,222.093 195.230,222.093 196.000 M183.293 196.400 C 183.293 197.170,183.375 197.485,183.476 197.100 C 183.576 196.715,183.576 196.085,183.476 195.700 C 183.375 195.315,183.293 195.630,183.293 196.400 M72.534 202.800 C 72.534 204.450,72.605 205.125,72.691 204.300 C 72.778 203.475,72.778 202.125,72.691 201.300 C 72.605 200.475,72.534 201.150,72.534 202.800 M327.309 212.800 C 327.309 213.790,327.387 214.195,327.482 213.700 C 327.578 213.205,327.578 212.395,327.482 211.900 C 327.387 211.405,327.309 211.810,327.309 212.800 M167.021 256.109 C 167.193 256.558,166.371 257.982,164.497 260.487 C 158.739 268.182,158.600 268.463,158.600 272.446 C 158.600 276.576,158.388 276.898,155.490 277.190 C 149.387 277.804,156.629 282.387,171.800 287.514 C 179.958 290.271,185.075 291.228,195.027 291.859 C 200.380 292.198,200.000 293.227,200.000 278.395 C 200.000 266.826,200.184 264.720,201.072 266.093 C 201.253 266.372,201.444 271.985,201.498 278.566 C 201.610 292.375,201.515 292.005,204.962 291.993 C 207.517 291.984,214.017 291.328,216.400 290.838 C 217.390 290.635,219.820 290.162,221.800 289.789 C 235.524 287.198,252.755 277.938,245.252 277.184 C 242.448 276.903,241.600 275.932,241.600 273.006 C 241.600 269.985,240.915 268.406,237.208 262.885 C 234.971 259.553,233.978 257.726,234.117 257.195 C 234.289 256.540,234.202 256.478,233.583 256.809 C 232.257 257.519,232.371 257.861,235.429 262.365 C 239.476 268.325,240.423 270.453,240.298 273.300 C 240.184 275.903,241.082 277.217,243.768 278.374 L 245.335 279.049 244.110 279.922 C 240.225 282.688,227.192 287.503,220.200 288.755 C 217.780 289.189,215.530 289.638,215.200 289.754 C 213.617 290.311,203.904 290.818,203.367 290.372 C 202.920 290.001,202.791 287.525,202.706 277.656 L 202.600 265.400 201.047 265.273 C 198.622 265.074,198.663 264.842,198.765 278.169 L 198.858 290.370 197.793 290.637 C 197.208 290.784,195.620 290.786,194.264 290.641 C 192.909 290.497,190.090 290.211,188.000 290.006 C 179.544 289.179,163.210 283.941,157.006 280.067 L 155.412 279.072 157.079 278.364 C 159.593 277.296,160.140 276.189,159.805 272.849 C 159.615 270.963,159.681 269.784,160.012 269.142 C 160.670 267.864,165.005 261.825,166.879 259.574 C 168.634 257.468,168.692 257.188,167.583 256.184 C 166.885 255.553,166.803 255.542,167.021 256.109 M148.426 281.214 C 149.033 281.539,149.200 282.060,149.200 283.632 C 149.200 287.274,146.341 288.803,143.969 286.431 C 141.113 283.575,144.792 279.269,148.426 281.214 M257.095 281.700 C 259.120 283.886,257.912 287.200,255.089 287.200 C 252.418 287.200,250.626 283.134,252.480 281.280 C 253.326 280.434,256.160 280.692,257.095 281.700 M110.400 291.000 C 112.260 292.870,113.872 294.400,113.982 294.400 C 114.092 294.400,112.660 292.870,110.800 291.000 C 108.940 289.130,107.328 287.600,107.218 287.600 C 107.108 287.600,108.540 289.130,110.400 291.000 M290.189 291.700 L 287.400 294.600 290.300 291.811 C 292.994 289.220,293.383 288.800,293.089 288.800 C 293.028 288.800,291.723 290.105,290.189 291.700 M193.500 328.682 C 193.995 328.778,194.805 328.778,195.300 328.682 C 195.795 328.587,195.390 328.509,194.400 328.509 C 193.410 328.509,193.005 328.587,193.500 328.682 M206.900 328.676 C 207.285 328.776,207.915 328.776,208.300 328.676 C 208.685 328.575,208.370 328.493,207.600 328.493 C 206.830 328.493,206.515 328.575,206.900 328.676 " stroke="none" fill="#ddb186" fill-rule="evenodd"></path></g></svg>